# xmcd
#
# Track frame offsets:
#	182
#	28977
#	48765
#	72885
#	93965
#	112287
#	135565
#	161970
#	184040
#	206865
#	225572
#	245705
#	270385
#	292867
#
# Disc length: 4268 seconds
#
# Revision: 29
# Processed by: cddbd v1.5.2PL0 Copyright (c) Steve Scherf et al.
# Submitted via: EasyCDDAExtractor 15.3.0.1
#
DISCID=cd10aa0e
DTITLE=Madonna - Something To Remember
DYEAR=1995
DGENRE=Pop
TTITLE0=I Want You (With Massive Attack)
TTITLE1=I'll Remember (Theme From The Motion Picture With Honors)
TTITLE2=Take A Bow
TTITLE3=You'll See
TTITLE4=Crazy For You
TTITLE5=This Used To Be My Playground
TTITLE6=Live To Tell
TTITLE7=Love Don't Live Here Anymore (Remix)
TTITLE8=Something To Remember
TTITLE9=Forbidden Love
TTITLE10=One More Chance
TTITLE11=Rain
TTITLE12=Oh Father
TTITLE13=I Want You (Orchestral) (With Massive Attack)
EXTD=YEAR: 1995
EXTT0=
EXTT1=
EXTT2=
EXTT3=
EXTT4=
EXTT5=
EXTT6=
EXTT7=
EXTT8=
EXTT9=
EXTT10=
EXTT11=
EXTT12=
EXTT13=
PLAYORDER=
